<?xml version="1.0" standalone="no"?>
<!DOCTYPE svg PUBLIC "-//W3C//DTD SVG 20010904//EN"
 "http://www.w3.org/TR/2001/REC-SVG-20010904/DTD/svg10.dtd">
<svg version="1.0" xmlns="http://www.w3.org/2000/svg"
 width="960.000000pt" height="960.000000pt" viewBox="0 0 960.000000 960.000000"
 preserveAspectRatio="xMidYMid meet">
<metadata>
Created by potrace 1.11, written by Peter Selinger 2001-2013
</metadata>
<g transform="translate(0.000000,960.000000) scale(0.100000,-0.100000)"
fill="#000000" stroke="none">
<path d="M0 4800 l0 -4800 4800 0 4800 0 0 4800 0 4800 -4800 0 -4800 0 0
-4800z m5383 2880 l61 -75 -67 59 c-61 53 -83 77 -57 61 26 -16 5 15 -47 70
l-58 60 53 -50 c30 -28 81 -84 115 -125z m-87 59 c3 -6 -5 -3 -20 6 -14 10
-26 19 -26 22 0 7 39 -17 46 -28z m-326 -753 c0 -3 -27 -19 -60 -38 l-60 -33
0 -107 0 -108 61 31 c34 16 63 28 65 26 2 -2 -24 -19 -58 -37 -35 -18 -83 -45
-108 -59 -25 -15 -109 -65 -187 -112 -79 -46 -141 -88 -140 -93 2 -5 25 -17
52 -28 89 -34 427 -202 550 -273 413 -237 742 -508 941 -777 152 -205 202
-333 211 -543 6 -141 -9 -220 -62 -331 -56 -116 -173 -218 -314 -274 -29 -11
-55 -19 -57 -17 -3 2 21 21 53 42 119 79 186 165 229 292 24 71 26 88 21 183
-7 135 -47 265 -114 365 -65 96 -314 342 -453 446 -381 286 -913 566 -1440
760 -74 28 -148 56 -165 64 -48 21 -300 103 -430 140 -360 101 -598 134 -728
100 -74 -19 -102 -38 -133 -90 -58 -100 -32 -317 67 -558 16 -39 27 -72 25
-74 -9 -9 -111 155 -156 251 -58 122 -80 207 -80 309 0 180 94 290 293 345 77
20 337 22 477 3 306 -42 665 -135 1034 -267 82 -30 152 -54 156 -54 3 0 7 6 8
13 14 153 13 163 -1 182 -14 17 -19 18 -36 8 -12 -7 -24 -13 -27 -13 -12 0 69
55 171 115 55 32 120 71 145 86 38 23 240 128 248 129 1 0 2 -2 2 -4z m75
-196 c-3 -5 -12 -10 -18 -10 -7 0 -6 4 3 10 19 12 23 12 15 0z m-1119 -510 c1
-72 28 -105 83 -104 23 0 38 -2 34 -6 -4 -4 -46 -36 -93 -71 -781 -586 -1029
-973 -789 -1234 23 -25 64 -60 91 -77 26 -17 48 -33 48 -35 0 -10 -112 44
-152 73 -105 77 -148 165 -148 300 0 113 20 186 86 314 120 234 389 528 741
811 54 43 98 79 98 79 0 0 0 -23 1 -50z m1431 -1951 c-26 -68 -84 -189 -92
-189 -2 0 12 34 31 76 37 81 39 88 24 79 -5 -3 5 19 23 49 17 30 33 53 35 51
1 -1 -8 -31 -21 -66z m-56 -67 c-5 -10 -18 -25 -28 -33 -12 -10 -11 -5 6 19
24 35 38 43 22 14z m790 -960 c31 -48 208 -316 393 -596 185 -279 338 -513
339 -520 3 -16 -202 -18 -228 -1 -11 7 -72 92 -135 191 -63 98 -127 190 -142
206 l-26 28 -241 0 c-133 0 -241 3 -241 6 0 21 104 184 121 189 11 4 48 4 82
0 34 -3 81 -2 104 2 l43 8 -72 123 c-40 67 -75 122 -78 122 -3 0 -119 -196
-258 -435 -140 -239 -262 -440 -272 -445 -23 -12 -207 -13 -214 -2 -3 5 10 33
28 63 35 56 652 1046 693 1112 13 20 29 37 36 37 6 0 37 -39 68 -88z m-2101
53 c0 -9 -51 -86 -92 -141 l-38 -51 -257 -6 c-271 -7 -474 -26 -558 -54 -138
-45 -205 -146 -205 -308 0 -211 146 -407 345 -460 53 -15 88 -17 188 -12 104
5 440 44 545 63 19 4 32 2 32 -4 0 -6 -25 -58 -55 -115 l-56 -105 -203 -7
c-456 -16 -663 33 -826 196 -132 132 -194 374 -145 563 52 199 234 385 421
430 46 11 153 15 482 15 232 1 422 -1 422 -4z m1310 -9 c0 -14 -61 -109 -102
-159 l-23 -28 -225 -4 c-349 -6 -556 -27 -630 -65 -50 -26 -105 -87 -132 -145
-19 -42 -23 -66 -23 -155 0 -92 4 -113 28 -169 58 -138 170 -243 300 -283 62
-18 85 -20 196 -14 69 3 227 19 351 35 124 16 227 27 229 25 7 -6 -103 -213
-115 -218 -6 -2 -110 -7 -230 -11 -327 -10 -483 10 -629 80 -189 91 -308 267
-331 489 -9 85 17 207 64 305 68 141 228 276 373 315 78 21 899 23 899 2z"/>
</g>
</svg>
